<?xml version="1.0" encoding="utf-8"?>
<!-- Svg Vector Icons : http://www.onlinewebfonts.com/icon -->
<!DOCTYPE svg PUBLIC "-//W3C//DTD SVG 1.1//EN" "http://www.w3.org/Graphics/SVG/1.1/DTD/svg11.dtd">
<svg version="1.1" xmlns="http://www.w3.org/2000/svg" xmlns:xlink="http://www.w3.org/1999/xlink" x="0px" y="0px" viewBox="0 0 1000 1000" enable-background="new 0 0 1000 1000" xml:space="preserve">
<metadata> Svg Vector Icons : http://www.onlinewebfonts.com/icon </metadata>
<g><g transform="translate(0.000000,103.000000) scale(0.100000,-0.100000)"><path d="M889.6-3005.5c-166.7-30.6-371.7-143.7-502-275.9C4.4-3662.7,4.4-4275.8,385.7-4657.1c137.9-138,339.1-245.2,521.1-277.8c78.6-15.3,1337.3-21.1,4100.1-21.1c3389.3,0,4006.2,3.8,4117.3,28.7c502,105.4,848.8,613.1,762.5,1115.1c-67.1,392.8-377.4,720.4-762.5,800.9c-111.1,24.9-724.2,28.7-4134.6,26.8C2558.4-2986.4,947.1-2994,889.6-3005.5z"/></g></g>
</svg>